<?xml version="1.0" standalone="no"?>
<!DOCTYPE svg PUBLIC "-//W3C//DTD SVG 1.1//EN" "http://www.w3.org/Graphics/SVG/1.1/DTD/svg11.dtd">
<svg width="160px" height="80px" version="1.1" xmlns="http://www.w3.org/2000/svg" xmlns:xlink="http://www.w3.org/1999/xlink" xml:space="preserve" style="fill-rule:evenodd;clip-rule:evenodd;stroke-linecap:round;stroke-linejoin:round;stroke-miterlimit:1.41421;">
    <g>
        <g id="Layer2">
            <g id="play">
                <path d="M53.9963,15.2083L51.0373,17.9824L46.3436,10.8824C45.27,9.25876 44.9913,7.4894 45.5903,6.02716C46.1835,4.5673 47.5209,3.72855 49.2594,3.72855L110.741,3.72855C112.477,3.72855 113.816,4.5673 114.412,6.02716C114.619,6.53402 114.721,7.07892 114.721,7.63958C114.721,8.69809 114.361,9.82168 113.658,10.8823L109.377,17.3544L106.418,14.5804L110.626,8.21364L49.3723,8.21364ZM76.1897,73.9617L46.3436,28.8231C45.6374,27.7578 45.2795,26.6701 45.2795,25.5915C45.2795,23.6381 46.5094,21.6692 49.2594,21.6692L110.741,21.6692C113.489,21.6692 114.721,23.6381 114.721,25.5915C114.721,26.6701 114.363,27.7578 113.656,28.8231L83.8104,73.9617C82.8405,75.4283 81.4522,76.2715 80,76.2715C78.5479,76.2715 77.1597,75.4283 76.1897,73.9617ZM61.2365,26.1544L79.1487,53.2469C79.4048,53.6326 79.7062,53.8457 80,53.8457C80.2938,53.8457 80.5952,53.6326 80.8512,53.2469L98.7616,26.1544ZM80.8495,71.1876L110.626,26.1544L103.555,26.1544L83.8085,56.0211C82.8385,57.4877 81.4503,58.3287 79.9982,58.3287C78.546,58.3287 77.1579,57.4877 76.1878,56.0211L56.4411,26.1544L49.3723,26.1544L79.1487,71.1876C79.4048,71.5733 79.7062,71.7864 80,71.7864C80.2919,71.7862 80.5952,71.5711 80.8495,71.1876Z" style="fill:rgb(136,136,136);fill-rule:nonzero;stroke-width:2.29px;stroke:rgb(136,136,136);"/>
            </g>
        </g>
    </g>
</svg>
