<?xml version="1.0" standalone="no"?><!DOCTYPE svg PUBLIC "-//W3C//DTD SVG 1.1//EN" "http://www.w3.org/Graphics/SVG/1.1/DTD/svg11.dtd"><svg width="100%" height="100%" viewBox="0 0 160 80" version="1.1" xmlns="http://www.w3.org/2000/svg" xmlns:xlink="http://www.w3.org/1999/xlink" xml:space="preserve" style="fill-rule:evenodd;clip-rule:evenodd;stroke-linejoin:round;stroke-miterlimit:1.41421;"><path d="M81.3597,54.5631c0,0 -15.3141,8.40977 -14.6026,-8.32003c11.8755,-20.793 11.9047,-20.8442 11.9047,-20.8442c0,0 18.6514,-10.707 25.1451,14.3612l-11.9047,20.8442c0,0 -46.258,26.2854 -47.611,-23.7328l13.3945,-23.4526c0,0 15.4343,-10.2433 42.5,0.219491" style="fill:none;stroke-width:4.5px;stroke-linecap:round;stroke:#525252;"/><path d="M78.6619,25.399c0,0 15.3141,-8.40977 14.6026,8.32003c-11.8755,20.793 -11.9047,20.8442 -11.9047,20.8442c0,0 -19.7709,11.1813 -25.1451,-14.3612l11.9047,-20.8442c0,0 46.258,-26.2854 47.611,23.7328l-13.3945,23.4526c-7.91331,6.93137 -19.6102,9.12308 -29.6311,6.18458c-5.8325,-1.71029 -11.0549,-4.85317 -16.2646,-7.89313" style="fill:none;stroke-width:4.5px;stroke-linecap:round;stroke:#525252;"/></svg>