<?xml version="1.0" standalone="no"?>
<!DOCTYPE svg PUBLIC "-//W3C//DTD SVG 1.1//EN" "http://www.w3.org/Graphics/SVG/1.1/DTD/svg11.dtd">
<svg width="300px" height="190px" version="1.1" xmlns="http://www.w3.org/2000/svg" xmlns:xlink="http://www.w3.org/1999/xlink" xml:space="preserve" style="fill-rule:evenodd;clip-rule:evenodd;stroke-linejoin:round;stroke-miterlimit:1.41421;">
    <g>
        <g id="Layer1">
            <g>
                <g>
                    <path d="M53.813,95.0651L109.799,179.115L57.3231,179.115L1.42034,95.1894L1.2548,95.1894L1.33757,95.0651L1.2548,94.9408L1.42034,94.9408L57.3231,11.0148L109.799,11.0148L53.813,95.0651Z" style="fill:rgb(186,186,186);fill-opacity:0.729412;"/>
                </g>
                <g>
                    <path d="M214.825,10.8846C261.173,10.8846 298.745,48.4571 298.745,94.805C298.745,141.153 261.173,178.725 214.825,178.725C168.477,178.725 130.904,141.153 130.904,94.805C130.904,48.4571 168.477,10.8846 214.825,10.8846ZM214.825,53.0128C237.906,53.0128 256.617,71.7238 256.617,94.805C256.617,117.886 237.906,136.597 214.825,136.597C191.744,136.597 173.032,117.886 173.032,94.805C173.032,71.7238 191.744,53.0128 214.825,53.0128Z" style="fill:url(#tag1);"/>
                </g>
            </g>
        </g>
    </g>
    <defs>
        <linearGradient id="tag1" x1="0" y1="0" x2="1" y2="0" gradientUnits="userSpaceOnUse" gradientTransform="matrix(167.841,0,0,167.841,130.904,94.805)"><stop offset="0%" style="stop-color:rgb(25,136,217);stop-opacity:0.831373"/><stop offset="100%" style="stop-color:rgb(119,31,181);stop-opacity:0.831373"/></linearGradient>
    </defs>
</svg>
