<?xml version="1.0" standalone="no"?>
<!DOCTYPE svg PUBLIC "-//W3C//DTD SVG 1.1//EN" "http://www.w3.org/Graphics/SVG/1.1/DTD/svg11.dtd">
<svg width="148px" height="44px" version="1.1" xmlns="http://www.w3.org/2000/svg" xmlns:xlink="http://www.w3.org/1999/xlink" xml:space="preserve" style="fill-rule:evenodd;clip-rule:evenodd;stroke-linejoin:round;stroke-miterlimit:1.41421;">
    <g>
        <g id="Capa_1">
            <g>
                <path d="M31.2911,7.2827L27.2796,11.1072C24.5506,8.22165 21.4799,6.78079 18.0696,6.78079C15.1898,6.78079 12.7642,7.76553 10.7928,9.73121C8.82137,11.7007 7.83663,14.1263 7.83663,17.0118C7.83663,19.0214 8.27365,20.8039 9.1458,22.3631C10.0199,23.9222 11.2546,25.1455 12.852,26.0368C14.4474,26.9242 16.2222,27.3669 18.1726,27.3669C19.8368,27.3669 21.3578,27.0559 22.7376,26.4356C24.1136,25.8135 25.6308,24.6837 27.2796,23.0406L31.169,27.0979C28.9419,29.2735 26.8407,30.7773 24.8598,31.6151C22.8788,32.4567 20.6192,32.8747 18.0791,32.8747C13.3959,32.8747 9.56184,31.3918 6.57707,28.4204C3.59229,25.449 2.09991,21.6436 2.09991,17.0004C2.09991,13.9965 2.7793,11.3267 4.1381,8.99074C5.4969,6.65483 7.44349,4.77694 9.97788,3.35708C12.5123,1.93721 15.2394,1.22728 18.1631,1.22728C20.6479,1.22728 23.041,1.75019 25.3426,2.80173C27.6422,3.85327 29.6251,5.34565 31.2911,7.2827Z" style="fill:rgb(51,51,51);fill-rule:nonzero;"/>
            </g>
            <g>
                <path d="M32.2492,1.22919L37.8008,1.22919L37.8008,12.0843C38.8943,11.1434 39.9916,10.4354 41.0985,9.96595C42.2054,9.49457 43.3257,9.25792 44.4593,9.25792C46.6711,9.25792 48.5357,10.0232 50.0509,11.5538C51.3487,12.8782 51.9975,14.8248 51.9975,17.3916L51.9975,32.1208L46.4879,32.1208L46.4879,22.3497C46.4879,19.7695 46.3658,18.0214 46.1196,17.1054C45.8734,16.1912 45.4516,15.508 44.86,15.0576C44.2665,14.6072 43.5318,14.382 42.6577,14.382C41.5241,14.382 40.5508,14.758 39.7378,15.508C38.9267,16.2599 38.3618,17.2828 38.0489,18.5806C37.8847,19.2504 37.8027,20.7772 37.8027,23.1684L37.8027,32.1189L32.2511,32.1189Z" style="fill:rgb(51,51,51);fill-rule:nonzero;"/>
            </g>
            <g>
                <path d="M53.0987,9.83236L57.8946,9.83236L57.8946,12.6377C58.4117,11.5309 59.1045,10.6911 59.9614,10.1186C60.8221,9.54609 61.7648,9.25792 62.7897,9.25792C63.513,9.25792 64.2706,9.44876 65.0626,9.83236L63.3221,14.6454C62.6656,14.3172 62.1255,14.1549 61.7038,14.1549C60.8431,14.1549 60.116,14.6855 59.5205,15.7523C58.9251,16.8172 58.6274,18.9069 58.6274,22.0195L58.6484,23.1054L58.6484,32.1189L53.0968,32.1189Z" style="fill:rgb(51,51,51);fill-rule:nonzero;"/>
            </g>
            <g>
                <path d="M74.1009,9.25792C76.2059,9.25792 78.1811,9.78274 80.0323,10.8343C81.8815,11.8858 83.3262,13.3133 84.3625,15.1168C85.4026,16.9202 85.9178,18.8649 85.9178,20.9546C85.9178,23.0577 85.3987,25.0215 84.3529,26.8555C83.3052,28.6818 81.8853,30.1132 80.0838,31.1456C78.2861,32.1743 76.2956,32.6934 74.1219,32.6934C70.9253,32.6934 68.1981,31.5559 65.9386,29.283C63.6771,27.0101 62.5492,24.2467 62.5492,20.9966C62.5492,17.5157 63.824,14.613 66.3794,12.2904C68.618,10.2675 71.1905,9.25792 74.1009,9.25792ZM74.1925,14.5233C72.4558,14.5233 71.0092,15.1263 69.8546,16.3363C68.7,17.5462 68.1218,19.092 68.1218,20.9775C68.1218,22.9165 68.6924,24.4871 69.8317,25.6875C70.9749,26.8917 72.4215,27.4891 74.1734,27.4891C75.9234,27.4891 77.3796,26.8841 78.5437,25.6665C79.7097,24.4509 80.288,22.886 80.288,20.9756C80.288,19.0634 79.7174,17.5099 78.5761,16.3153C77.4311,15.1206 75.9711,14.5233 74.1925,14.5233Z" style="fill:rgb(51,51,51);fill-rule:nonzero;"/>
            </g>
            <g>
                <path d="M86.9026,9.83236L92.4981,9.83236L92.4981,12.3935C93.4523,11.3419 94.5153,10.5556 95.6851,10.0366C96.8512,9.51937 98.126,9.25792 99.5096,9.25792C100.903,9.25792 102.16,9.59953 103.283,10.2827C104.403,10.966 105.309,11.9622 105.985,13.2732C106.878,11.9622 107.964,10.966 109.26,10.2827C110.55,9.60144 111.958,9.25792 113.495,9.25792C115.079,9.25792 116.476,9.62625 117.67,10.3648C118.876,11.1034 119.739,12.0652 120.264,13.2542C120.789,14.4431 121.054,16.3744 121.054,19.0519L121.054,32.1208L115.418,32.1208L115.418,20.8134C115.418,18.2867 115.105,16.5767 114.479,15.6836C113.85,14.7885 112.909,14.342 111.653,14.342C110.699,14.342 109.842,14.6149 109.078,15.1607C108.323,15.7065 107.762,16.4622 107.39,17.4241C107.023,18.3859 106.834,19.9336 106.834,22.0653L106.834,32.1227L101.206,32.1227L101.206,21.3287C101.206,19.3344 101.059,17.8897 100.765,16.9947C100.473,16.0996 100.027,15.4336 99.4447,14.9965C98.8531,14.5595 98.1413,14.342 97.3054,14.342C96.3779,14.342 95.5287,14.6187 94.7748,15.1721C94.0115,15.7256 93.4447,16.4985 93.0649,17.4966C92.6908,18.4947 92.5019,20.0634 92.5019,22.2085L92.5019,32.1227L86.9026,32.1227Z" style="fill:rgb(51,51,51);fill-rule:nonzero;"/>
            </g>
            <g>
                <path d="M139.548,9.83236L145.14,9.83236L145.14,32.1189L139.548,32.1189L139.548,29.7639C138.457,30.804 137.361,31.5502 136.264,32.0082C135.165,32.4663 133.976,32.6934 132.693,32.6934C129.815,32.6934 127.327,31.5769 125.224,29.3422C123.119,27.1112 122.071,24.3364 122.071,21.0176C122.071,17.5748 123.088,14.7561 125.121,12.5557C127.155,10.3572 129.623,9.25792 132.531,9.25792C133.865,9.25792 135.121,9.50983 136.294,10.0156C137.466,10.5194 138.556,11.2789 139.552,12.2885ZM133.667,14.4202C131.938,14.4202 130.502,15.0309 129.357,16.2523C128.216,17.4756 127.644,19.0424 127.644,20.9527C127.644,22.8783 128.226,24.4623 129.392,25.7066C130.554,26.9471 131.985,27.5731 133.689,27.5731C135.445,27.5731 136.899,26.9624 138.058,25.7391C139.212,24.5139 139.791,22.9165 139.791,20.9337C139.791,18.9928 139.212,17.4222 138.058,16.2218C136.899,15.0214 135.438,14.4202 133.667,14.4202Z" style="fill:rgb(51,51,51);fill-rule:nonzero;"/>
            </g>
            <g>
                <rect x="86.9026" y="37.7182" width="34.1512" height="5.5955" style="fill:rgb(3,169,155);"/>
            </g>
        </g>
    </g>
</svg>
